<svg width="84" height="60" viewBox="0 0 84 60" fill="none" xmlns="http://www.w3.org/2000/svg">
    <path d="M5.0143 47.8889H0.399902V45.3089H12.8911V47.8889H8.0951V59.7905H5.0143V47.8889ZM9.8647 59.7905L15.8647 45.3105H19.4199L25.4095 59.7905H21.7887L20.3919 56.4385H14.8839L13.4855 59.7921L9.8647 59.7905ZM17.6447 48.7889L15.5751 53.8609H19.7007L17.6447 48.7889ZM28.5719 45.3089V53.9873C28.5558 54.5319 28.6132 55.0763 28.7423 55.6057C28.8461 55.9785 29.0468 56.3172 29.3239 56.5873C29.6691 56.8961 30.0719 57.1336 30.5091 57.2861C30.9464 57.4387 31.4096 57.5032 31.8719 57.4761C32.4932 57.4902 33.1102 57.371 33.6815 57.1265C34.1398 56.9457 34.5195 56.6088 34.7535 56.1753C35.0061 55.475 35.111 54.7301 35.0615 53.9873V45.3089H38.1375V53.8377C38.1629 54.7814 38.0442 55.7234 37.7855 56.6313C37.5886 57.3117 37.2074 57.9244 36.6839 58.4017C35.3022 59.4855 33.569 60.0211 31.8167 59.9057C29.5831 59.9057 27.9495 59.4147 26.9159 58.4329C26.4073 57.9618 26.0245 57.3711 25.8023 56.7145C25.5667 55.8513 25.4631 54.9575 25.4951 54.0633V45.3089H28.5719ZM43.3679 54.2857V59.7905H40.2871V45.3105H47.3583C49.3839 45.3105 50.8063 45.5713 51.6079 46.0889C52.1462 46.424 52.5841 46.8983 52.8751 47.4617C53.1807 48.042 53.3374 48.6891 53.3311 49.3449C53.4054 50.5026 53.0277 51.644 52.2775 52.5289C51.7995 53.0114 51.2098 53.3687 50.5607 53.5689C51.0192 53.7047 51.4519 53.9161 51.8407 54.1945C52.1695 54.4677 52.4367 54.8074 52.6247 55.1913C52.792 55.5041 52.9189 55.8369 53.0023 56.1817C53.0958 56.653 53.1576 57.1301 53.1871 57.6097C53.2194 58.3481 53.3375 59.0802 53.5391 59.7913H50.0863C49.9213 59.1169 49.8142 58.4296 49.7663 57.7369C49.7224 57.0655 49.5655 56.4064 49.3023 55.7873C49.0822 55.34 48.7285 54.9721 48.2903 54.7345C47.5248 54.3904 46.6873 54.2366 45.8495 54.2865L43.3679 54.2857ZM43.3679 51.7097H47.6935C48.2268 51.7559 48.762 51.6447 49.2327 51.3897C49.4779 51.1899 49.6695 50.9322 49.7903 50.6399C49.9111 50.3476 49.9573 50.0299 49.9247 49.7153C49.969 49.3562 49.8903 48.9927 49.7014 48.6841C49.5125 48.3755 49.2246 48.14 48.8847 48.0161C48.4955 47.9154 48.0936 47.8728 47.6919 47.8897H43.3679V51.7097ZM61.9447 45.2169C63.2556 45.1893 64.5573 45.4424 65.7623 45.9593C66.394 46.2398 66.9611 46.6474 67.4283 47.1566C67.8956 47.6659 68.253 48.2659 68.4783 48.9193C68.9135 50.1517 69.1227 51.4526 69.0959 52.7593C69.1283 54.0757 68.8707 55.3831 68.3415 56.5889C67.7844 57.8333 66.7595 58.8082 65.4887 59.3025C64.4276 59.7005 63.301 59.895 62.1679 59.8761C60.6977 59.9105 59.2402 59.5978 57.9135 58.9633C56.8964 58.4478 56.0801 57.6081 55.5935 56.5769C55.029 55.3358 54.7554 53.9822 54.7935 52.6193C54.7935 49.8635 55.4788 47.899 56.8495 46.7257C58.0111 45.7342 59.7098 45.2318 61.9455 45.2185M61.9655 47.6569C61.3792 47.6036 60.7892 47.704 60.2536 47.9483C59.718 48.1925 59.2553 48.5721 58.9111 49.0497C58.3491 50.1173 58.0995 51.3218 58.1911 52.5249C58.0891 53.8382 58.4089 55.1499 59.1039 56.2689C59.4545 56.6802 59.8984 57.0016 60.3986 57.2062C60.8988 57.4108 61.4408 57.4926 61.9791 57.4449C62.5099 57.4861 63.0428 57.3994 63.5332 57.1921C64.0236 56.9849 64.4571 56.663 64.7975 56.2537C65.4826 55.1485 65.7986 53.8542 65.6999 52.5577C65.771 51.3564 65.518 50.158 64.9671 49.0881C64.6425 48.6011 64.1922 48.2109 63.6639 47.959C63.1357 47.707 62.5483 47.6026 61.9655 47.6569ZM74.0023 49.1769V59.7905H71.0655V45.3105H75.0095L80.7695 56.0993V45.3089H83.7063V59.7889H79.9119L74.0023 49.1769Z" fill="white"/>
    <path d="M50.591 0.400391C50.591 2.00039 50.591 5.14999 50.591 5.73399C50.591 8.16519 46.9542 9.74999 43.0262 11.3556C39.9862 12.5964 35.4622 14.4172 33.5678 17.4204C34.2558 15.2868 35.1062 12.7396 35.795 10.6044C36.5366 8.31719 38.9238 7.08439 42.571 5.60519C46.2182 4.12599 50.091 2.90839 50.591 0.400391ZM44.0502 11.2684C47.3654 10.9276 52.1838 10.4284 53.0398 10.3348C55.9814 10.0284 58.5598 12.8148 60.735 16.4244C62.9102 20.034 65.9582 23.2476 70.179 23.6044C64.0006 23.6044 60.583 23.6044 56.8454 23.5996C52.7006 23.5196 52.0238 20.1436 50.591 17.0996C49.1582 14.0556 47.071 11.5364 44.0502 11.2684ZM50.5894 18.0524C50.5894 20.4204 50.5894 25.2964 50.5894 26.2548C50.5894 29.9716 45.0614 31.9036 39.9038 33.7452C34.7462 35.5868 28.3926 37.398 25.7678 41.438C26.9678 37.774 28.2014 34.186 29.3182 30.5052C30.5862 26.31 35.5166 25.2252 41.1174 23.6044C46.7182 21.9836 49.971 21.018 50.5894 18.0524ZM21.6902 13.6308C24.2758 13.362 27.6102 13.0116 28.3238 12.934C30.6182 12.694 31.863 15.1668 33.4102 17.894C34.883 20.4988 36.6102 22.9956 39.7022 23.6068C35.1814 23.5956 33.867 23.5788 31.0918 23.6068C28.1878 23.5476 27.0478 21.582 25.7862 18.95C24.5246 16.318 23.5462 13.6548 21.6902 13.6356" fill="white"/>
</svg>
